<svg width="1376" height="174" viewBox="0 0 1376 174" fill="none" xmlns="http://www.w3.org/2000/svg">
<g clip-path="url(#clip0_7143_5168)">
<path d="M1226.67 30.8736C1227.77 30.2972 1229.13 30.9423 1229.35 32.15C1230.96 40.8647 1232.49 49.0443 1233.95 57.2512C1235.62 66.7071 1237.33 76.1629 1238.75 85.6462C1239.17 88.4734 1239.21 91.5476 1238.56 94.3198C1232.55 119.915 1226.34 145.483 1220.17 171.037C1220.06 171.517 1219.92 171.984 1219.78 172.478C1219.34 173.919 1217.38 174.207 1216.52 172.958C1207.93 160.277 1199.27 147.638 1190.85 134.847C1189.79 133.227 1189.26 130.661 1189.69 128.808C1196.55 99.7682 1203.58 70.7556 1210.65 41.7568C1210.94 40.5491 1211.56 38.9983 1212.51 38.4493C1217.01 35.8692 1221.64 33.5087 1226.66 30.8736H1226.67Z" fill="#EBE3DC"/>
<path d="M1150.67 62.5899C1136.77 42.6764 1123.11 23.1197 1108.92 2.82183C1107.98 1.46315 1109.23 -0.320973 1110.86 0.0495756C1147.49 8.4624 1183.24 16.6694 1219.93 25.0959C1221.57 25.4665 1221.85 27.6349 1220.37 28.4034C1197.57 40.1649 1175.52 51.5558 1153.04 63.1526C1152.22 63.5781 1151.19 63.331 1150.67 62.5762V62.5899Z" fill="#EBE3DC"/>
<path d="M1202.69 42.3097C1202.69 42.3097 1201.75 42.1188 1200.99 42.5075C1187.28 49.6028 1174.1 56.4236 1160.21 63.6013C1158.72 64.3698 1158.99 66.5245 1160.62 66.9362C1167.49 68.6517 1173.66 70.23 1179.88 71.6436C1182.19 72.1651 1183.06 73.0983 1183.19 75.4314C1183.67 84.3383 1186.27 107.436 1186.46 110.043C1186.53 111.018 1188.36 110.826 1188.64 109.7C1193.89 88.2634 1199.14 66.799 1204.58 44.5661C1204.91 43.2211 1203.66 42.5075 1202.69 42.3097Z" fill="#EBE3DC"/>
<path d="M1257.92 30.8736C1256.83 30.2972 1255.47 30.9423 1255.25 32.15C1253.63 40.8647 1252.11 49.0443 1250.65 57.2512C1248.98 66.7071 1247.27 76.1629 1245.85 85.6462C1245.43 88.4734 1245.39 91.5476 1246.04 94.3198C1252.05 119.915 1258.26 145.483 1264.43 171.037C1264.54 171.517 1264.68 171.984 1264.82 172.478C1265.26 173.919 1267.22 174.207 1268.07 172.958C1276.67 160.277 1285.33 147.638 1293.74 134.847C1294.81 133.227 1295.34 130.661 1294.91 128.808C1288.05 99.7682 1281.01 70.7556 1273.95 41.7568C1273.65 40.5491 1273.04 38.9983 1272.08 38.4493C1267.58 35.8692 1262.96 33.5087 1257.94 30.8736H1257.92Z" fill="#EBE3DC"/>
<path d="M1333.93 62.5899C1347.83 42.6764 1361.49 23.1197 1375.68 2.82183C1376.62 1.46315 1375.37 -0.320973 1373.74 0.0495756C1337.11 8.4624 1301.36 16.6694 1264.67 25.0959C1263.03 25.4665 1262.75 27.6349 1264.23 28.4034C1287.03 40.1649 1309.08 51.5558 1331.56 63.1526C1332.38 63.5781 1333.41 63.331 1333.93 62.5762V62.5899Z" fill="#EBE3DC"/>
<path d="M1281.93 42.3097C1281.93 42.3097 1282.87 42.1188 1283.62 42.5075C1297.33 49.6028 1310.51 56.4236 1324.4 63.6013C1325.89 64.3698 1325.62 66.5245 1324 66.9362C1317.13 68.6517 1310.96 70.23 1304.73 71.6436C1302.42 72.1651 1301.55 73.0983 1301.42 75.4314C1300.95 84.3383 1298.34 107.436 1298.16 110.043C1298.09 111.018 1296.25 110.826 1295.97 109.7C1290.73 88.2634 1285.47 66.799 1280.03 44.5661C1279.71 43.2211 1280.95 42.5075 1281.93 42.3097Z" fill="#EBE3DC"/>
<path d="M974.919 0H1000.93V66.7693C1011.58 55.3503 1027.63 49.6504 1049.1 49.6504C1059.4 49.6504 1069.06 51.4341 1078.08 54.9819C1087.09 58.5491 1094.43 64.0938 1100.11 71.6161C1105.78 79.1577 1108.6 88.541 1108.6 99.7856V173.747H1082.32V100.522C1082.32 89.9369 1079.26 82.3178 1073.17 77.6842C1067.07 73.0507 1057.84 70.7436 1045.48 70.7436C1031.74 70.7436 1020.87 74.1752 1012.89 81.0382C1004.9 87.9013 1000.91 98.2152 1000.91 111.941V173.747H974.899V0H974.919Z" fill="#EBE3DC"/>
<path d="M913.355 145.903C905.284 151.155 894.915 153.772 882.248 153.772C867.142 153.772 855.228 149.808 846.465 141.9C837.702 133.991 833.31 121.463 833.31 110.813C833.31 97.3198 837.681 88.7006 846.465 80.8705C855.228 73.0403 867.162 69.1155 882.248 69.1155C898.737 69.1155 911.139 73.2356 919.475 81.4953C924.314 86.2794 927.689 91.9225 929.722 98.3663H955.279C953.774 90.829 951.091 84.0729 947.187 78.1172C940.844 68.4516 932.081 61.1682 920.898 56.2475C909.696 51.3268 896.826 48.8665 882.248 48.8665C867.67 48.8665 854.475 51.4635 843.191 56.6185C831.907 61.793 823.185 69.2131 817.025 78.8593C810.864 88.5249 807.773 97.9642 807.773 110.793C807.773 120.78 810.864 133.855 817.025 143.501C823.185 153.166 831.907 160.626 843.191 165.878C854.475 171.131 867.487 173.747 882.248 173.747C902.031 173.747 918.479 169.373 931.572 160.626C944.666 151.878 952.616 139.752 955.401 124.248H929.885C926.937 133.425 921.427 140.63 913.355 145.864V145.903Z" fill="#EBE3DC"/>
<path d="M717.96 48.8665H743.386L743.387 66.4888C753.493 55.2524 769.655 49.6147 791.912 49.6147C797.387 49.6147 800.896 49.6922 802.44 49.8666L801.678 70.2085C797.567 69.8791 793.116 69.7048 788.323 69.7048C774.628 69.7048 763.8 73.1726 755.839 80.1276C747.878 87.0632 743.908 97.4085 743.908 111.125V173.623H717.981L717.981 48.8665H717.96Z" fill="#EBE3DC"/>
<path d="M565.847 162.236C555.741 154.642 550.708 145.129 550.708 133.719C550.708 109.754 572.865 97.7425 617.2 97.7425L667.029 97.4689C667.029 88.8672 665.325 85.3656 662.517 80.9872C659.69 76.6089 654.857 73.5867 648.02 71.94C641.182 70.2932 630.895 69.3827 617.22 69.2083C616.358 69.2083 612.307 69.3246 605.028 69.5764C597.749 69.8283 591.553 71.6106 586.42 74.9041C581.287 78.2169 578.8 82.9246 578.981 89.0465H551.249C550.728 73.3348 557.445 62.7183 571.401 57.1776C585.357 51.6368 600.617 48.8665 617.22 48.8665C636.57 48.8665 651.709 50.61 662.658 54.0778C673.606 57.5457 681.406 62.9702 686.018 70.332C690.63 77.6938 692.956 87.4966 692.956 99.7211V173.666H667.029V156.792C661.374 162.914 653.554 167.254 643.528 169.811C633.522 172.368 624.739 173.666 617.22 173.666C593.077 173.666 575.973 169.869 565.867 162.255L565.847 162.236ZM585.217 147.338C590.952 150.806 601.599 152.549 617.18 152.549C630.695 152.549 641.142 150.806 648.501 147.338C655.86 143.87 660.773 139.937 663.259 135.559C665.746 131.181 666.989 127.093 666.989 123.276V117.077H617.18C590.13 117.077 576.615 122.463 576.615 133.196C576.615 139.143 579.482 143.87 585.217 147.338Z" fill="#EBE3DC"/>
<path d="M394.984 48.8666H420.39V69.9567C430.997 56.3954 447.179 48.8666 468.916 48.8666C479.182 48.8666 488.807 51.3972 497.79 54.9425C506.774 58.5071 514.093 64.0866 519.747 71.6809C525.402 79.2946 528.209 88.71 528.209 99.9658V173.39H502.021V100.702C502.021 90.1242 498.933 82.4718 492.777 77.7641C486.621 73.0564 477.458 69.9446 465.306 69.9446C451.109 69.9446 440.101 73.8701 432.321 80.2439C424.541 86.6176 420.63 97.2342 420.63 112.113V173.623H394.964L394.964 48.8666H394.984Z" fill="#EBE3DC"/>
<path d="M263.493 166.024C252.308 160.869 243.662 153.509 237.555 143.946C231.448 134.383 228.405 123.21 228.405 110.446C228.363 98.906 231.406 88.0395 237.512 78.5529C243.619 69.0662 252.265 61.7453 263.45 56.5899C274.636 51.4345 287.534 48.8665 302.166 48.8665C316.798 48.8665 329.676 51.4345 340.882 56.5899C352.067 61.7453 360.713 69.0662 366.82 78.5529C372.926 88.0395 375.99 99.0785 376.032 110.446C376.032 123.037 372.969 134.364 366.862 143.946C360.756 153.509 352.11 160.869 340.924 166.024C329.739 171.179 316.84 173.747 302.209 173.747C287.577 173.747 274.679 171.16 263.493 166.024ZM266.859 141.991C275.807 149.753 287.678 153.643 302.471 153.643C317.264 153.643 329.316 149.81 338.083 142.106C346.85 134.421 351.243 123.938 351.243 110.695C351.2 98.676 346.807 88.1928 338.04 80.5077C329.273 72.8226 317.402 68.9704 302.428 68.9704C287.454 68.9704 275.764 72.8609 266.816 80.6227C257.868 88.3845 253.394 98.8293 253.436 110.676C253.436 123.746 257.91 134.191 266.859 141.953V141.991Z" fill="#EBE3DC"/>
<path d="M89.111 173.39L99.9591 144.679L43.3925 0H0V173.39H26.6892V26.5413L84.4589 173.39H89.111Z" fill="#EBE3DC"/>
<path d="M164.045 0L96.4299 173.39H122.979L180.989 25.8051V173.39H207.698V0H164.045Z" fill="#EBE3DC"/>
</g>
<defs>
<clipPath id="clip0_7143_5168">
<rect width="1376" height="173.747" fill="white"/>
</clipPath>
</defs>
</svg>
